# xmcd
# 
# Track frame offsets:
#     150
#     30039
#     62814
#     107814
#     138489
#     182664
#     211027
#     229927
#     253402
#     278377
#     307777
#     331860
# 
# Disc length: 4583
# 
# Revision: 1
# Processed by: cddbd v1.5.2PL0 Copyright (c) Steve Scherf et al.
# Submitted via: fre:ac v1.0.31
# 
DISCID=9b11e50c
DTITLE=Didier Lockwood - Open Doors
DYEAR=2016
DGENRE=Jazz
TTITLE0=Open Doors
TTITLE1=Good Morning Lady Sun
TTITLE2=Quark
TTITLE3=The Ballad of Pat and Robin
TTITLE4=Positive Life
TTITLE5=The One Shot Duet
TTITLE6=Little Bossa
TTITLE7=Mathilde and the Ghost
TTITLE8=Blues Fourth
TTITLE9=Ballad for Four
TTITLE10=Now I Really Got the Blues
TTITLE11=Time to Time
EXTD=YEAR: 2016
EXTT0=
EXTT1=
EXTT2=
EXTT3=
EXTT4=
EXTT5=
EXTT6=
EXTT7=
EXTT8=
EXTT9=
EXTT10=
EXTT11=
PLAYORDER=
